<svg width="100%" height="100%" viewBox="0 0 267 43" version="1.1" xmlns="http://www.w3.org/2000/svg" xml:space="preserve" fill="#ffffff" style="fill-rule:evenodd;clip-rule:evenodd;stroke-linejoin:round;stroke-miterlimit:2;">
    <g transform="matrix(1,0,0,1,-4.096,-8.05)">
        <path d="M54.491,41.063L45.271,31.846L36.054,41.062L45.271,50.283L54.491,41.063ZM42.967,29.167L23.529,9.729L4.096,29.167L23.529,48.604L42.967,29.167ZM88.957,42.345C86.372,42.345 84.006,41.762 81.931,40.634C79.819,39.505 78.181,37.94 76.98,35.938C75.779,33.935 75.16,31.678 75.16,29.166C75.16,26.655 75.779,24.361 76.98,22.359C78.181,20.357 79.819,18.828 81.931,17.663C84.006,16.534 86.372,15.988 88.993,15.988C91.214,15.988 93.216,16.389 95,17.153C96.747,17.918 98.276,19.046 99.478,20.502L95.692,23.997C93.981,21.995 91.833,21.012 89.285,21.012C87.719,21.012 86.299,21.34 85.062,22.031C83.824,22.723 82.877,23.706 82.186,24.944C81.494,26.181 81.13,27.601 81.13,29.166C81.13,30.732 81.494,32.152 82.186,33.389C82.877,34.627 83.824,35.61 85.062,36.265C86.299,36.957 87.719,37.321 89.285,37.321C91.833,37.321 93.981,36.302 95.692,34.299L99.478,37.794C98.276,39.287 96.747,40.415 94.964,41.18C93.18,41.944 91.178,42.345 88.957,42.345ZM150.516,42.345C148.514,42.345 146.548,42.054 144.692,41.507C142.798,40.998 141.27,40.27 140.141,39.396L142.143,34.955C143.235,35.756 144.546,36.411 146.038,36.884C147.531,37.357 149.06,37.612 150.553,37.612C152.227,37.612 153.465,37.357 154.266,36.848C155.067,36.374 155.467,35.719 155.467,34.882C155.467,34.263 155.249,33.753 154.775,33.389C154.302,32.952 153.683,32.661 152.955,32.406C152.191,32.152 151.208,31.897 149.934,31.606C148.004,31.132 146.403,30.695 145.165,30.222C143.927,29.749 142.871,29.021 141.998,28.002C141.087,26.982 140.651,25.635 140.651,23.924C140.651,22.432 141.051,21.085 141.852,19.883C142.653,18.718 143.854,17.736 145.456,17.044C147.094,16.352 149.06,15.988 151.39,15.988C153.028,15.988 154.593,16.17 156.159,16.571C157.724,16.971 159.071,17.517 160.236,18.245L158.416,22.723C156.05,21.376 153.72,20.721 151.353,20.721C149.715,20.721 148.478,20.976 147.677,21.522C146.912,22.068 146.512,22.759 146.512,23.633C146.512,24.507 146.985,25.162 147.895,25.562C148.805,25.999 150.189,26.436 152.045,26.837C153.975,27.31 155.576,27.747 156.814,28.22C158.052,28.693 159.108,29.421 160.018,30.404C160.891,31.387 161.328,32.734 161.328,34.445C161.328,35.901 160.928,37.212 160.127,38.413C159.29,39.614 158.088,40.597 156.45,41.289C154.812,41.981 152.846,42.345 150.516,42.345ZM136.1,16.425L130.203,16.425L130.203,41.908L136.1,41.908L136.1,16.425ZM241.999,16.425L236.102,16.425L236.102,41.908L241.999,41.908L241.999,16.425ZM214.114,16.425L220.011,16.425L220.011,37.103L232.789,37.103L232.789,41.908L214.114,41.908L214.114,16.425ZM170.283,21.23L162.129,21.23L162.129,16.425L184.335,16.425L184.335,21.23L176.181,21.23L176.181,41.908L170.283,41.908L170.283,21.23ZM119.682,41.908L114.767,34.809L109.343,34.809L109.343,41.908L103.446,41.908L103.446,16.425L114.476,16.425C116.733,16.425 118.699,16.789 120.374,17.554C122.012,18.318 123.286,19.374 124.196,20.757C125.106,22.14 125.543,23.779 125.543,25.672C125.543,27.565 125.106,29.203 124.196,30.55C123.25,31.933 121.975,32.989 120.301,33.717L126.016,41.908L119.682,41.908ZM264.097,41.908L257.944,33.062L251.901,41.908L245.13,41.908L254.559,28.948L245.603,16.425L252.302,16.425L258.163,24.689L263.915,16.425L270.285,16.425L261.403,28.73L270.904,41.908L264.097,41.908ZM203.011,36.447L191.179,36.447L188.922,41.908L182.879,41.908L194.237,16.425L200.062,16.425L211.456,41.908L205.268,41.908L203.011,36.447ZM54.491,41.063L54.492,41.063L54.492,41.062L54.491,41.063ZM66.388,29.167L57.171,19.95L47.954,29.167L57.171,38.383L66.388,29.167ZM201.154,31.97L197.113,22.213L193.072,31.97L201.154,31.97ZM119.573,25.672C119.573,24.252 119.1,23.123 118.189,22.359C117.279,21.594 115.932,21.23 114.149,21.23L109.343,21.23L109.343,30.113L114.149,30.113C115.932,30.113 117.279,29.713 118.189,28.948C119.1,28.184 119.573,27.091 119.573,25.672ZM54.492,17.271L45.271,8.05L36.054,17.271L45.271,26.488L54.492,17.271Z" style="fill: inherit;fill-rule:nonzero;"></path>
    </g>
</svg>
